<?xml version="1.0" encoding="UTF-8" standalone="no"?>
<!-- Created with Inkscape (http://www.inkscape.org/) -->

<svg
   width="210mm"
   height="297mm"
   viewBox="0 0 210 297"
   version="1.1"
   id="svg1"
   inkscape:version="1.3.2 (091e20e, 2023-11-25, custom)"
   sodipodi:docname="Elefit_logo.svg"
   xmlns:inkscape="http://www.inkscape.org/namespaces/inkscape"
   xmlns:sodipodi="http://sodipodi.sourceforge.net/DTD/sodipodi-0.dtd"
   xmlns:xlink="http://www.w3.org/1999/xlink"
   xmlns="http://www.w3.org/2000/svg"
   xmlns:svg="http://www.w3.org/2000/svg">
  <sodipodi:namedview
     id="namedview1"
     pagecolor="#ffffff"
     bordercolor="#000000"
     borderopacity="0.25"
     inkscape:showpageshadow="2"
     inkscape:pageopacity="0.0"
     inkscape:pagecheckerboard="0"
     inkscape:deskcolor="#d1d1d1"
     inkscape:document-units="mm"
     inkscape:zoom="1.0128998"
     inkscape:cx="198.44017"
     inkscape:cy="583.96696"
     inkscape:window-width="2560"
     inkscape:window-height="1351"
     inkscape:window-x="-9"
     inkscape:window-y="-9"
     inkscape:window-maximized="1"
     inkscape:current-layer="layer1" />
  <defs
     id="defs1">
    <linearGradient
       id="linearGradient11"
       inkscape:collect="always">
      <stop
         style="stop-color:#2aa3cc;stop-opacity:1;"
         offset="0.27204031"
         id="stop10" />
      <stop
         style="stop-color:#16e737;stop-opacity:0;"
         offset="1"
         id="stop11" />
    </linearGradient>
    <linearGradient
       id="linearGradient4"
       inkscape:collect="always">
      <stop
         style="stop-color:#0085cc;stop-opacity:1;"
         offset="0.27204031"
         id="stop4" />
      <stop
         style="stop-color:#007b1c;stop-opacity:0;"
         offset="1"
         id="stop5" />
    </linearGradient>
    <linearGradient
       inkscape:collect="always"
       xlink:href="#linearGradient4"
       id="linearGradient5"
       x1="45.451187"
       y1="131.0277"
       x2="132.95778"
       y2="131.0277"
       gradientUnits="userSpaceOnUse"
       gradientTransform="translate(-1.3060686,0.52242744)" />
    <linearGradient
       inkscape:collect="always"
       xlink:href="#linearGradient11"
       id="linearGradient8"
       gradientUnits="userSpaceOnUse"
       x1="108.14249"
       y1="138.57385"
       x2="158.16492"
       y2="138.57385"
       gradientTransform="translate(0,0.78364118)" />
  </defs>
  <g
     inkscape:label="Layer 1"
     inkscape:groupmode="layer"
     id="layer1">
    <path
       style="fill:url(#linearGradient5);fill-opacity:1;stroke:none;stroke-width:0.265;stroke-dasharray:none"
       d="m 56.422164,136.61477 c 7.836408,-32.91292 12.277042,-55.899732 12.277042,-55.899732 0,0 18.256037,0.624203 39.182054,-0.522427 19.0686,-1.044854 23.77045,-10e-7 23.77045,-10e-7 l -2.08971,20.24407 c 0,0 -13.58312,-4.571251 -23.77045,0.65303 -18.456068,9.46466 -21.941948,-0.26121 -21.941948,-0.26121 l -5.746701,25.33772 c 10.355171,-0.44387 18.023749,-0.43535 28.994729,-1.04485 l -4.70185,19.59103 -28.472299,0.52242 -5.746701,21.94196 c 0,0 14.601983,10.90184 26.643802,-1.04486 7.621688,-7.56148 20.113448,-0.26121 20.113448,-0.26121 l -4.17942,17.50132 -64.577726,-0.69129 0.05794,-0.35356"
       id="path1"
       sodipodi:nodetypes="ccsccsccccccscccc"
       inkscape:export-filename="Elefit_logo.png"
       inkscape:export-xdpi="445.53668"
       inkscape:export-ydpi="445.53668" />
    <path
       style="fill:url(#linearGradient8);stroke-width:0.265;stroke-dasharray:none"
       d="m 114.93405,183.63324 9.40369,-39.44326 -16.19525,0.2612 4.44063,-19.0686 16.19525,-0.52241 c 0,0 4.60979,-11.20667 10.44854,-18.02376 5.65782,-6.60584 17.50132,-12.015831 17.50132,-12.015831 0,0 -6.65417,11.990761 -10.70976,20.309361 -4.14412,8.50021 -3.95646,10.37533 -3.95646,10.37533 l 16.1029,-0.25336 -3.37474,18.7533 c -6.6996,0.28159 -9.79807,0.24541 -15.43265,0.44593 l -7.18338,39.44327 z"
       id="path2"
       sodipodi:nodetypes="cccccscscccccc" />
  </g>
</svg>
